<svg xmlns="http://www.w3.org/2000/svg" xmlns:xlink="http://www.w3.org/1999/xlink" width="200"
    height="50" preserveAspectRatio="xMidYMid meet" version="1.0" viewBox="0 0 150 37.5"
    zoomAndPan="magnify">
    <g fill="#FFF" fill-opacity="1">
        <g>
            <g>
                <path
                    d="M 25.90625 0 L 24.140625 -6.734375 L 12.46875 -6.734375 L 10.65625 0 L 0 0 L 11.71875 -36.046875 L 24.65625 -36.046875 L 36.515625 0 Z M 22.125 -14.6875 L 20.578125 -20.578125 C 20.222656 -21.890625 19.785156 -23.582031 19.265625 -25.65625 C 18.753906 -27.738281 18.414062 -29.234375 18.25 -30.140625 C 18.101562 -29.296875 17.8125 -27.914062 17.375 -26 C 16.9375 -24.09375 15.972656 -20.320312 14.484375 -14.6875 Z M 22.125 -14.6875"
                    transform="translate(1.472553, 36.86018)" />
            </g>
        </g>
    </g>
    <g fill="#FFF" fill-opacity="1">
        <g>
            <g>
                <path
                    d="M 19.953125 0 L 10.140625 0 L 10.140625 -28.296875 L 1.265625 -28.296875 L 1.265625 -36.3125 L 28.796875 -36.3125 L 28.796875 -28.296875 L 19.953125 -28.296875 Z M 19.953125 0"
                    transform="translate(53.439156, 36.803648)" />
            </g>
        </g>
    </g>
    <g fill="#FFF" fill-opacity="1">
        <g>
            <g>
                <path
                    d="M 4.046875 -37.5 L 17.140625 -37.5 C 22.234375 -37.5 26.015625 -36.738281 28.484375 -35.21875 C 30.953125 -33.707031 32.1875 -31.351562 32.1875 -28.15625 C 32.1875 -26.0625 31.644531 -24.269531 30.5625 -22.78125 C 29.488281 -21.289062 28.070312 -20.332031 26.3125 -19.90625 L 26.3125 -19.640625 C 28.644531 -19.023438 30.332031 -18 31.375 -16.5625 C 32.414062 -15.132812 32.9375 -13.273438 32.9375 -10.984375 C 32.9375 -7.578125 31.65625 -4.894531 29.09375 -2.9375 C 26.539062 -0.976562 23.054688 0 18.640625 0 L 4.046875 0 Z M 14.1875 -23.109375 L 17.234375 -23.109375 C 18.691406 -23.109375 19.816406 -23.40625 20.609375 -24 C 21.398438 -24.601562 21.796875 -25.492188 21.796875 -26.671875 C 21.796875 -28.773438 20.207031 -29.828125 17.03125 -29.828125 L 14.1875 -29.828125 Z M 14.1875 -15.703125 L 14.1875 -7.828125 L 17.75 -7.828125 C 20.914062 -7.828125 22.5 -9.160156 22.5 -11.828125 C 22.5 -13.078125 22.070312 -14.035156 21.21875 -14.703125 C 20.375 -15.367188 19.148438 -15.703125 17.546875 -15.703125 Z M 14.1875 -15.703125"
                    transform="translate(101.449334, 36.866982)" />
            </g>
        </g>
    </g>
    <g fill="#FFF" fill-opacity="1">
        <g>
            <g>
                <path
                    d="M 2.09375 -4.03125 C 2.09375 -5.53125 2.535156 -6.679688 3.421875 -7.484375 C 4.304688 -8.296875 5.585938 -8.703125 7.265625 -8.703125 C 8.878906 -8.703125 10.113281 -8.296875 10.96875 -7.484375 C 11.832031 -6.679688 12.265625 -5.53125 12.265625 -4.03125 C 12.265625 -2.570312 11.820312 -1.429688 10.9375 -0.609375 C 10.050781 0.203125 8.828125 0.609375 7.265625 0.609375 C 5.660156 0.609375 4.394531 0.203125 3.46875 -0.609375 C 2.550781 -1.421875 2.09375 -2.5625 2.09375 -4.03125 Z M 2.09375 -4.03125"
                    transform="translate(39.394467, 36.168482)" />
            </g>
        </g>
    </g>
    <g fill="#FFF" fill-opacity="1">
        <g>
            <g>
                <path
                    d="M 2.09375 -4.03125 C 2.09375 -5.53125 2.535156 -6.679688 3.421875 -7.484375 C 4.304688 -8.296875 5.585938 -8.703125 7.265625 -8.703125 C 8.878906 -8.703125 10.113281 -8.296875 10.96875 -7.484375 C 11.832031 -6.679688 12.265625 -5.53125 12.265625 -4.03125 C 12.265625 -2.570312 11.820312 -1.429688 10.9375 -0.609375 C 10.050781 0.203125 8.828125 0.609375 7.265625 0.609375 C 5.660156 0.609375 4.394531 0.203125 3.46875 -0.609375 C 2.550781 -1.421875 2.09375 -2.5625 2.09375 -4.03125 Z M 2.09375 -4.03125"
                    transform="translate(83.734793, 36.168482)" />
            </g>
        </g>
    </g>
</svg>