<svg xmlns="http://www.w3.org/2000/svg" version="1.1" xmlns:xlink="http://www.w3.org/1999/xlink" xmlns:svgjs="http://svgjs.dev/svgjs" width="1500" height="1500" viewBox="0 0 1500 1500"><rect width="1500" height="1500" fill="#000000"></rect><g transform="matrix(0.6666666666666666,0,0,0.6666666666666666,249.39393939393938,710.7294954005939)"><svg viewBox="0 0 396 31" data-background-color="#ffffff" preserveAspectRatio="xMidYMid meet" height="117" width="1500" xmlns="http://www.w3.org/2000/svg" xmlns:xlink="http://www.w3.org/1999/xlink"><g id="tight-bounds" transform="matrix(1,0,0,1,0.2400000000000091,0.10750823822547773)"><svg viewBox="0 0 395.52 30.78498352354903" height="30.78498352354903" width="395.52"><g><svg viewBox="0 0 445.4606498051121 34.67207414198984" height="30.78498352354903" width="395.52"><g><rect width="3.1112073907514017" height="34.67207414198984" x="38.68492044904293" y="0" fill="#ffffff" opacity="1" stroke-width="0" stroke="transparent" fill-opacity="1" class="rect-qz-0" data-fill-palette-color="primary" rx="1%" id="qz-0" data-palette-color="#202046"></rect></g><g transform="matrix(1,0,0,1,49.94064980511214,0.08624894065171418)"><svg viewBox="0 0 395.52 34.49957626068641" height="34.49957626068641" width="395.52"><g id="textblocktransform"><svg viewBox="0 0 395.52 34.49957626068641" height="34.49957626068641" width="395.52" id="textblock"><g><svg viewBox="0 0 395.52 34.49957626068641" height="34.49957626068641" width="395.52"><g transform="matrix(1,0,0,1,0,0)"><svg width="395.52" viewBox="2.5 -34 403.51 35.2" height="34.49957626068641" data-palette-color="#202046"><path d="M22.4-11.15L22.4-2.5 23.05-2.5Q23.5-2.5 23.95-2.55L23.95-2.55 25.05-2.65 25.05-0.25Q24.15-0.1 23.3 0L23.3 0Q22.6 0.1 21.8 0.15 21 0.2 20.5 0.2L20.5 0.2Q18.05 0.2 16.8-0.7 15.55-1.6 15-2.65L15-2.65Q13.9-1.25 12.48-0.43 11.05 0.4 9.2 0.4L9.2 0.4Q5.8 0.4 4.15-0.88 2.5-2.15 2.5-5.3L2.5-5.3Q2.5-6.4 2.53-7.4 2.55-8.4 2.65-9.15L2.65-9.15Q2.75-10.05 2.85-10.75L2.85-10.75 14.45-13.6Q14.4-15.05 14.35-16.28 14.3-17.5 14.25-18.35L14.25-18.35Q14.15-19.35 14.1-20.15L14.1-20.15Q13.95-20.2 13.65-20.25L13.65-20.25Q13.4-20.3 12.9-20.35 12.4-20.4 11.7-20.4L11.7-20.4Q11.25-20.4 10.85-20.38 10.45-20.35 10.05-20.3L10.05-20.3Q9.9-19.6 9.55-18.63 9.2-17.65 8.45-16.78 7.7-15.9 6.48-15.28 5.25-14.65 3.35-14.65L3.35-14.65 3.35-22.2Q4.95-22.35 6.6-22.5L6.6-22.5Q8.05-22.6 9.7-22.7 11.35-22.8 12.9-22.8L12.9-22.8Q16.15-22.8 18.03-22.25 19.9-21.7 20.88-20.35 21.85-19 22.13-16.75 22.4-14.5 22.4-11.15L22.4-11.15ZM10.8-2.3L10.8-2.3Q11.8-2.55 12.73-3.58 13.65-4.6 14.5-6.05L14.5-6.05 14.5-11.35 10.7-10.3Q10.6-9.5 10.55-8.68 10.5-7.85 10.5-7.05L10.5-7.05Q10.5-6.05 10.53-5.2 10.55-4.35 10.65-3.7L10.65-3.7Q10.7-2.95 10.8-2.3ZM26.55-19.05L26.55-21.55 29.5-21.55 37.05-23 37.05-2.75Q37.15-2.7 37.35-2.65L37.35-2.65Q37.55-2.6 38.45-2.6L38.45-2.6Q39.5-2.6 40.3-3.03 41.1-3.45 41.7-4 42.3-4.55 42.7-5.1 43.1-5.65 43.25-5.95L43.25-5.95 43.25-22.45 51.15-22.45 51.15-2.5 51.8-2.5Q52.25-2.5 52.7-2.55L52.7-2.55 53.8-2.65 53.8-0.25Q52.9-0.1 52.05 0L52.05 0Q51.35 0.1 50.55 0.15 49.75 0.2 49.25 0.2L49.25 0.2Q47.95 0.2 47-0.08 46.05-0.35 45.37-0.8 44.7-1.25 44.25-1.83 43.8-2.4 43.6-2.95L43.6-2.95Q43.5-2.8 43.05-2.25 42.6-1.7 41.67-1.13 40.75-0.55 39.32-0.1 37.9 0.35 35.8 0.35L35.8 0.35Q34.65 0.35 33.47 0.15 32.3-0.05 31.32-0.58 30.35-1.1 29.75-2 29.15-2.9 29.15-4.35L29.15-4.35 29.15-19.05 26.55-19.05ZM58.05-4.65L58.05-24.75 65.95-26.9 65.95-22.45 71.95-22.45 71.95-19.95 65.95-19.95 65.95-2.5 67-2.5Q69.9-2.5 69.9-6.9L69.9-6.9 72.45-6.9Q72.45-5.3 72.27-4 72.09-2.7 71.32-1.75 70.55-0.8 69.02-0.3 67.5 0.2 64.8 0.2L64.8 0.2Q62.95 0.2 61.65-0.23 60.34-0.65 59.55-1.35 58.75-2.05 58.4-2.9 58.05-3.75 58.05-4.65L58.05-4.65ZM74.44-28.25L74.44-30.75 77.39-30.75 85.29-32.2 85.29-19.95Q85.89-20.75 86.89-21.35L86.89-21.35Q87.74-21.9 89.17-22.35 90.59-22.8 92.74-22.8L92.74-22.8Q93.89-22.8 95.07-22.6 96.24-22.4 97.22-21.88 98.19-21.35 98.79-20.45 99.39-19.55 99.39-18.1L99.39-18.1 99.39-2.55 102.34-2.55 102.34 0 91.49 0 91.49-19.7Q91.39-19.7 91.19-19.75L91.19-19.75Q90.79-19.85 90.09-19.85L90.09-19.85Q89.04-19.85 88.22-19.43 87.39-19 86.79-18.45 86.19-17.9 85.82-17.32 85.44-16.75 85.29-16.45L85.29-16.45 85.29-2.55 88.24-2.55 88.24 0 74.44 0 74.44-2.55 77.39-2.55 77.39-28.25 74.44-28.25ZM115.94-22.8L115.94-22.8Q118.69-22.8 120.49-22.28 122.29-21.75 123.39-20.6 124.49-19.45 124.94-17.57 125.39-15.7 125.39-12.95L125.39-12.95Q125.39-12.1 125.34-11.48 125.29-10.85 125.24-10.45L125.24-10.45Q125.19-9.95 125.14-9.7L125.14-9.7 112.79-9.7Q112.84-8 112.99-6.63 113.14-5.25 113.29-4.25L113.29-4.25Q113.49-3.05 113.69-2.15L113.69-2.15Q113.84-2.05 114.14-2L114.14-2Q114.39-1.95 114.87-1.93 115.34-1.9 116.09-1.9L116.09-1.9Q117.34-1.9 118.47-2.08 119.59-2.25 120.44-2.65 121.29-3.05 121.77-3.78 122.24-4.5 122.24-5.55L122.24-5.55 124.94-5.55Q124.94-3.45 124.02-2.25 123.09-1.05 121.72-0.43 120.34 0.2 118.74 0.35 117.14 0.5 115.74 0.5L115.74 0.5Q112.69 0.5 110.57-0.13 108.44-0.75 107.12-2.13 105.79-3.5 105.19-5.73 104.59-7.95 104.59-11.15L104.59-11.15Q104.59-14.35 105.12-16.57 105.64-18.8 106.94-20.18 108.24-21.55 110.42-22.18 112.59-22.8 115.94-22.8ZM113.69-20.25L113.69-20.25Q113.44-19.15 113.24-17.85L113.24-17.85Q113.09-16.7 112.94-15.18 112.79-13.65 112.79-11.85L112.79-11.85 117.64-11.85Q117.54-13.95 117.39-15.53 117.24-17.1 117.04-18.15L117.04-18.15Q116.84-19.4 116.59-20.25L116.59-20.25Q116.44-20.3 116.24-20.4L116.24-20.4Q116.04-20.45 115.77-20.5 115.49-20.55 115.14-20.55L115.14-20.55Q114.79-20.55 114.54-20.5 114.29-20.45 114.09-20.4L114.09-20.4Q113.89-20.3 113.69-20.25ZM128.64-19.05L128.64-21.55 131.59-21.55 139.14-23 139.14-19.5Q139.24-19.65 139.69-20.2 140.14-20.75 141.04-21.33 141.94-21.9 143.39-22.35 144.84-22.8 146.94-22.8L146.94-22.8Q148.09-22.8 149.26-22.6 150.44-22.4 151.41-21.88 152.39-21.35 152.99-20.45 153.59-19.55 153.59-18.1L153.59-18.1 153.59-2.55 156.54-2.55 156.54 0 145.69 0 145.69-19.7Q145.59-19.7 145.39-19.75L145.39-19.75Q144.99-19.85 144.29-19.85L144.29-19.85Q143.24-19.85 142.41-19.43 141.59-19 140.99-18.45 140.39-17.9 140.01-17.32 139.64-16.75 139.49-16.45L139.49-16.45 139.49-2.55 142.44-2.55 142.44 0 128.64 0 128.64-2.55 131.59-2.55 131.59-19.05 128.64-19.05ZM160.54-4.65L160.54-24.75 168.44-26.9 168.44-22.45 174.44-22.45 174.44-19.95 168.44-19.95 168.44-2.5 169.49-2.5Q172.39-2.5 172.39-6.9L172.39-6.9 174.94-6.9Q174.94-5.3 174.76-4 174.59-2.7 173.81-1.75 173.04-0.8 171.51-0.3 169.99 0.2 167.29 0.2L167.29 0.2Q165.44 0.2 164.14-0.23 162.84-0.65 162.04-1.35 161.24-2.05 160.89-2.9 160.54-3.75 160.54-4.65L160.54-4.65ZM177.18-19.55L177.18-22.05 180.13-22.05 188.03-23.25 188.03-2.55 190.98-2.55 190.98 0 177.18 0 177.18-2.55 180.13-2.55 180.13-19.55 177.18-19.55ZM180.13-29.85L180.13-29.85Q180.13-31.95 181.03-32.98 181.93-34 184.08-34L184.08-34Q186.33-34 187.18-32.98 188.03-31.95 188.03-29.85L188.03-29.85Q188.03-27.7 187.11-26.73 186.18-25.75 184.08-25.75L184.08-25.75Q181.93-25.75 181.03-26.73 180.13-27.7 180.13-29.85ZM212.28-22.45L212.28-14.75Q210.18-14.75 208.91-15.48 207.63-16.2 206.88-17.15 206.13-18.1 205.83-19.07 205.53-20.05 205.48-20.55L205.48-20.55 204.28-20.55Q203.93-20.55 203.68-20.5 203.43-20.45 203.23-20.4L203.23-20.4Q203.03-20.3 202.83-20.25L202.83-20.25Q202.58-19.05 202.38-17.65L202.38-17.65Q202.18-16.45 202.06-14.78 201.93-13.1 201.93-11.15L201.93-11.15Q201.93-9.2 202.06-7.55 202.18-5.9 202.38-4.7L202.38-4.7Q202.58-3.3 202.83-2.15L202.83-2.15Q203.03-2.05 203.38-2L203.38-2Q203.63-1.95 204.08-1.93 204.53-1.9 205.18-1.9L205.18-1.9Q206.28-1.9 207.28-2.1 208.28-2.3 209.01-2.83 209.73-3.35 210.16-4.25 210.58-5.15 210.58-6.55L210.58-6.55 212.98-6.55Q212.98-4.15 212.18-2.75 211.38-1.35 210.16-0.63 208.93 0.1 207.51 0.3 206.08 0.5 204.88 0.5L204.88 0.5Q201.83 0.5 199.71-0.13 197.58-0.75 196.26-2.13 194.93-3.5 194.33-5.73 193.73-7.95 193.73-11.15L193.73-11.15Q193.73-14.35 194.26-16.57 194.78-18.8 196.08-20.18 197.38-21.55 199.56-22.18 201.73-22.8 205.08-22.8L205.08-22.8Q206.28-22.8 207.56-22.75 208.83-22.7 209.88-22.6L209.88-22.6Q211.13-22.5 212.28-22.45L212.28-22.45ZM214.48-28.25L214.48-30.75 217.43-30.75 225.33-32.2 225.33-20.15Q226.73-21.35 228.4-22.05 230.08-22.75 231.93-22.75L231.93-22.75Q233.98-22.75 235.58-22.13 237.18-21.5 238.25-20.13 239.33-18.75 239.88-16.53 240.43-14.3 240.43-11.15L240.43-11.15Q240.43-7.95 239.83-5.73 239.23-3.5 237.83-2.13 236.43-0.75 234.2-0.15 231.98 0.45 228.78 0.45L228.78 0.45Q226.88 0.45 225.15 0.13 223.43-0.2 222.43-0.45L222.43-0.45 217.43-0.2 217.43-28.25 214.48-28.25ZM231.33-20.05L231.33-20.05Q229.68-20.05 228.1-18.98 226.53-17.9 225.33-16.3L225.33-16.3 225.33-2.25Q226.18-2 227.08-1.9 227.98-1.8 228.78-1.8L228.78-1.8Q229.98-1.8 230.68-1.95L230.68-1.95Q231.08-2 231.33-2.1L231.33-2.1Q231.58-3.25 231.78-4.65L231.78-4.65Q231.93-5.85 232.08-7.53 232.23-9.2 232.23-11.15L232.23-11.15Q232.23-13.55 232.08-15.23 231.93-16.9 231.78-18L231.78-18Q231.58-19.3 231.33-20.05ZM252.13-11.15L252.13-11.15Q252.13-9.2 252.25-7.53 252.38-5.85 252.58-4.65L252.58-4.65Q252.78-3.2 253.03-2.05L253.03-2.05Q253.28-1.95 253.68-1.9L253.68-1.9Q254.33-1.75 255.58-1.75L255.58-1.75Q256.78-1.75 257.48-1.9L257.48-1.9Q257.88-1.95 258.13-2.05L258.13-2.05Q258.38-3.2 258.58-4.65L258.58-4.65Q258.73-5.85 258.88-7.53 259.03-9.2 259.03-11.15L259.03-11.15Q259.03-13.1 258.88-14.75 258.73-16.4 258.58-17.65L258.58-17.65Q258.38-19.05 258.13-20.25L258.13-20.25Q257.83-20.3 257.43-20.4L257.43-20.4Q257.08-20.45 256.6-20.5 256.13-20.55 255.58-20.55L255.58-20.55Q254.93-20.55 254.48-20.5 254.03-20.45 253.68-20.4L253.68-20.4Q253.28-20.3 253.03-20.25L253.03-20.25Q252.78-19.05 252.58-17.65L252.58-17.65Q252.38-16.4 252.25-14.75 252.13-13.1 252.13-11.15ZM243.93-11.15L243.93-11.15Q243.93-14.35 244.53-16.57 245.13-18.8 246.53-20.18 247.93-21.55 250.13-22.18 252.33-22.8 255.58-22.8L255.58-22.8Q258.78-22.8 261-22.18 263.23-21.55 264.63-20.18 266.03-18.8 266.63-16.57 267.23-14.35 267.23-11.15L267.23-11.15Q267.23-7.95 266.63-5.73 266.03-3.5 264.63-2.13 263.23-0.75 261-0.13 258.78 0.5 255.58 0.5L255.58 0.5Q252.33 0.5 250.13-0.13 247.93-0.75 246.53-2.13 245.13-3.5 244.53-5.73 243.93-7.95 243.93-11.15ZM278.92-11.15L278.92-11.15Q278.92-9.2 279.05-7.53 279.17-5.85 279.37-4.65L279.37-4.65Q279.57-3.2 279.82-2.05L279.82-2.05Q280.07-1.95 280.47-1.9L280.47-1.9Q281.12-1.75 282.37-1.75L282.37-1.75Q283.57-1.75 284.27-1.9L284.27-1.9Q284.67-1.95 284.92-2.05L284.92-2.05Q285.17-3.2 285.37-4.65L285.37-4.65Q285.52-5.85 285.67-7.53 285.82-9.2 285.82-11.15L285.82-11.15Q285.82-13.1 285.67-14.75 285.52-16.4 285.37-17.65L285.37-17.65Q285.17-19.05 284.92-20.25L284.92-20.25Q284.62-20.3 284.22-20.4L284.22-20.4Q283.87-20.45 283.4-20.5 282.92-20.55 282.37-20.55L282.37-20.55Q281.72-20.55 281.27-20.5 280.82-20.45 280.47-20.4L280.47-20.4Q280.07-20.3 279.82-20.25L279.82-20.25Q279.57-19.05 279.37-17.65L279.37-17.65Q279.17-16.4 279.05-14.75 278.92-13.1 278.92-11.15ZM270.72-11.15L270.72-11.15Q270.72-14.35 271.32-16.57 271.92-18.8 273.32-20.18 274.72-21.55 276.92-22.18 279.12-22.8 282.37-22.8L282.37-22.8Q285.57-22.8 287.8-22.18 290.02-21.55 291.42-20.18 292.82-18.8 293.42-16.57 294.02-14.35 294.02-11.15L294.02-11.15Q294.02-7.95 293.42-5.73 292.82-3.5 291.42-2.13 290.02-0.75 287.8-0.13 285.57 0.5 282.37 0.5L282.37 0.5Q279.12 0.5 276.92-0.13 274.72-0.75 273.32-2.13 271.92-3.5 271.32-5.73 270.72-7.95 270.72-11.15ZM314.17-2.7L310.17-11.9 307.87-11.9 307.87-2.55 310.82-2.55 310.82 0 297.02 0 297.02-2.55 299.97-2.55 299.97-28.25 297.02-28.25 297.02-30.75 299.97-30.75 307.87-32.2 307.87-14.6 311.32-14.6Q313.67-14.6 314.65-15.18 315.62-15.75 315.62-17.6L315.62-17.6 315.62-19.9 311.62-19.9 311.62-22.45 323.52-22.45 323.52-19.9 318.77-19.9 318.77-16.95Q318.77-14.9 317.67-13.65L317.67-13.65 322.57-2.5 323.17-2.5Q323.57-2.5 323.97-2.55L323.97-2.55Q324.42-2.6 324.92-2.65L324.92-2.65 324.92-0.25Q324.32-0.1 323.47 0L323.47 0Q322.77 0.1 321.67 0.15 320.57 0.2 319.07 0.2L319.07 0.2Q317.92 0.2 317.12 0 316.32-0.2 315.77-0.58 315.22-0.95 314.85-1.48 314.47-2 314.17-2.7L314.17-2.7ZM336.57-22.7L336.57-22.7Q337.72-22.7 338.67-22.53 339.62-22.35 340.37-22.1L340.37-22.1 343.72-22.85 343.72-15.15Q341.82-15.15 340.59-15.73 339.37-16.3 338.62-17.13 337.87-17.95 337.49-18.88 337.12-19.8 336.97-20.45L336.97-20.45 336.57-20.45Q336.12-20.45 335.79-20.43 335.47-20.4 335.22-20.35L335.22-20.35Q334.97-20.3 334.82-20.25L334.82-20.25Q334.67-20.05 334.57-19.75L334.57-19.75Q334.47-19.5 334.42-19.05 334.37-18.6 334.37-18L334.37-18Q334.37-17.05 334.57-16.45 334.77-15.85 335.19-15.45 335.62-15.05 336.32-14.8 337.02-14.55 338.07-14.25L338.07-14.25Q339.42-13.9 340.74-13.38 342.07-12.85 343.12-12 344.17-11.15 344.84-9.88 345.52-8.6 345.52-6.8L345.52-6.8Q345.52-4.8 344.82-3.43 344.12-2.05 342.84-1.2 341.57-0.35 339.69 0.03 337.82 0.4 335.52 0.4L335.52 0.4Q333.62 0.4 332.34 0.23 331.07 0.05 330.32-0.2L330.32-0.2 326.87 0.55 326.87-7.65Q328.72-7.65 329.97-7 331.22-6.35 331.97-5.45 332.72-4.55 333.07-3.58 333.42-2.6 333.57-1.9L333.57-1.9Q333.87-1.85 334.12-1.85L334.12-1.85 335.57-1.85Q336.02-1.85 336.37-1.9L336.37-1.9Q336.77-1.95 337.12-2L337.12-2Q337.22-2.2 337.32-2.55L337.32-2.55Q337.42-2.85 337.49-3.35 337.57-3.85 337.57-4.55L337.57-4.55Q337.57-6 336.74-6.85 335.92-7.7 334.67-8.28 333.42-8.85 331.99-9.38 330.57-9.9 329.32-10.68 328.07-11.45 327.24-12.73 326.42-14 326.42-16.15L326.42-16.15Q326.42-17.65 326.94-18.88 327.47-20.1 328.64-20.95 329.82-21.8 331.77-22.25 333.72-22.7 336.57-22.7ZM349.52-3.1L349.52-3.1Q349.52-5.35 350.47-6.4 351.42-7.45 353.67-7.45L353.67-7.45Q356.07-7.45 356.94-6.4 357.82-5.35 357.82-3.1L357.82-3.1Q357.82-0.85 356.87 0.18 355.92 1.2 353.67 1.2L353.67 1.2Q351.42 1.2 350.47 0.18 349.52-0.85 349.52-3.1ZM361.81-19.55L361.81-22.05 364.76-22.05 372.66-23.25 372.66-2.55 375.61-2.55 375.61 0 361.81 0 361.81-2.55 364.76-2.55 364.76-19.55 361.81-19.55ZM364.76-29.85L364.76-29.85Q364.76-31.95 365.66-32.98 366.56-34 368.71-34L368.71-34Q370.96-34 371.81-32.98 372.66-31.95 372.66-29.85L372.66-29.85Q372.66-27.7 371.74-26.73 370.81-25.75 368.71-25.75L368.71-25.75Q366.56-25.75 365.66-26.73 364.76-27.7 364.76-29.85ZM378.11-19.05L378.11-21.55 381.06-21.55 388.61-23 388.61-19.5Q388.71-19.65 389.16-20.2 389.61-20.75 390.51-21.33 391.41-21.9 392.86-22.35 394.31-22.8 396.41-22.8L396.41-22.8Q397.56-22.8 398.74-22.6 399.91-22.4 400.89-21.88 401.86-21.35 402.46-20.45 403.06-19.55 403.06-18.1L403.06-18.1 403.06-2.55 406.01-2.55 406.01 0 395.16 0 395.16-19.7Q395.06-19.7 394.86-19.75L394.86-19.75Q394.46-19.85 393.76-19.85L393.76-19.85Q392.71-19.85 391.89-19.43 391.06-19 390.46-18.45 389.86-17.9 389.49-17.32 389.11-16.75 388.96-16.45L388.96-16.45 388.96-2.55 391.91-2.55 391.91 0 378.11 0 378.11-2.55 381.06-2.55 381.06-19.05 378.11-19.05Z" opacity="1" transform="matrix(1,0,0,1,0,0)" fill="#ffffff" class="wordmark-text-0" data-fill-palette-color="primary" id="text-0"></path></svg></g></svg></g></svg></g></svg></g><g transform="matrix(1,0,0,1,0,0.08624894065171418)"><svg viewBox="0 0 30.54039848372512 34.49957626068641" height="34.49957626068641" width="30.54039848372512"><g><svg xmlns="http://www.w3.org/2000/svg" xmlns:xlink="http://www.w3.org/1999/xlink" version="1.1" x="0" y="0" viewBox="6.891 1.1219999999999999 85.824 96.95" enable-background="new 0 0 100 100" xml:space="preserve" height="34.49957626068641" width="30.54039848372512" class="icon-icon-0" data-fill-palette-color="accent" id="icon-0"><g fill="#fe633d" data-fill-palette-color="accent"><path fill="#ffffff" d="M64.008 72.381c4.002-3.149 12.23-11.582 15.089-21.179-6.511-8.01-33.912-42.187-40.238-50.08C38.212 8.613 31.63 24.377 20.21 29.646c-5.247 2.56-10.477 4.156-12.467 4.721l39.077 47.32C51.235 80.263 59.958 75.56 64.008 72.381z" data-fill-palette-color="accent"></path><g fill="#fe633d" data-fill-palette-color="accent"><g fill="#fe633d" data-fill-palette-color="accent"><path fill="#ffffff" d="M90.405 75.352c-6.5 3.781-13.381 7.281-20.674 9.929-8.632 3.134-19.05 6.681-22.386 7.664v5.127l43.046-15.479L90.405 75.352z" data-fill-palette-color="accent"></path><polygon fill="#ffffff" points="6.891,35.865 6.891,50.088 45.703,97.945 45.736,82.902    " data-fill-palette-color="accent"></polygon></g><path fill="#ffffff" d="M88.717 70.42c-5.018 3.936-11.386 7.921-18.278 11.363-6.521 3.266-20.879 7.668-23.093 8.339v1.144c3.686-1.09 13.036-3.898 21.237-7.013 9.104-3.457 22.12-11.628 22.12-11.628L88.717 70.42z" data-fill-palette-color="accent"></path></g><path fill="#ffffff" d="M80.877 50.835l-0.114 0.403c-2.851 10.142-11.25 18.858-15.762 22.409-4.225 3.319-13.009 8.054-17.655 9.561v2.168c6.53-2.034 15.656-6.36 20.721-9.922 8.699-6.128 17.195-14.63 22.419-22.404l0.047 0.036C84.648 46.442 51.938 9.001 49.818 6.309c-0.719 1.357-1.368 2.265-2.422 2.887 10.832 13.508 28.598 35.647 33.217 41.314L80.877 50.835z" data-fill-palette-color="accent"></path><path fill="#ffffff" d="M87.321 59.925c0 0-11.588 12.1-18.328 16.846-5.696 4.008-14.5 7.942-21.647 10.168v1.498c0.692-0.212 1.838-0.566 3.268-1.021 5.266-1.677 14.41-4.722 19.106-7.072 9.305-4.648 17.623-10.274 22.834-15.386 0.054-0.053 0.106-0.106 0.161-0.16L87.321 59.925z" data-fill-palette-color="accent"></path></g></svg></g></svg></g></svg></g><defs></defs></svg><rect width="395.52" height="30.78498352354903" fill="none" stroke="none" visibility="hidden"></rect></g></svg></g></svg>